<svg width="91" height="102" viewBox="0 0 91 102" fill="none" xmlns="http://www.w3.org/2000/svg">
<path fill-rule="evenodd" clip-rule="evenodd" d="M67.2826 -14.4316C79.8437 -16.1991 91.1688 -7.49451 101.091 -0.895473C110.084 5.08414 117.128 12.7861 121.484 21.6137C125.512 29.7767 124.89 38.6342 124.946 47.4481C125.001 56.3051 126.951 65.664 121.81 73.438C116.637 81.2612 106.05 85.0694 96.9205 89.8274C87.4501 94.7627 78.446 101.117 67.2826 101.855C55.8253 102.613 45.2558 97.8271 34.7717 93.9363C23.3084 89.682 9.09624 87.159 3.10492 78.0378C-2.8877 68.9147 1.46312 57.5707 4.23566 47.4481C6.60007 38.8156 11.5812 31.0569 17.9267 23.9231C23.7777 17.3452 32.334 13.3607 39.5325 7.76705C49.0737 0.352388 54.365 -12.6138 67.2826 -14.4316Z" fill="url(#paint0_linear_1518_5377)"/>
<defs>
<linearGradient id="paint0_linear_1518_5377" x1="62.7257" y1="-14.6635" x2="62.7257" y2="101.935" gradientUnits="userSpaceOnUse">
<stop stop-color="#C5DCFF"/>
<stop offset="0.96875" stop-color="#C5DCFF" stop-opacity="0.5"/>
<stop offset="1" stop-color="#C4C4C4" stop-opacity="0"/>
</linearGradient>
</defs>
</svg>
