<svg width="13" height="14" viewBox="0 0 13 14" fill="none" xmlns="http://www.w3.org/2000/svg">
<g filter="url(#filter0_d_1518_5398)">
<path d="M7.625 5.28813V4.95025C7.625 4.90588 7.61737 4.86195 7.60253 4.82095C7.58771 4.77998 7.56597 4.74273 7.53857 4.71133C7.51115 4.67996 7.47861 4.65508 7.44282 4.63809C7.407 4.62112 7.36862 4.61239 7.32986 4.61239H6.14922C5.75784 4.61239 5.3825 4.4344 5.10574 4.11759C4.82899 3.80077 4.67352 3.37109 4.6735 2.92304C4.6735 2.70119 4.71168 2.48151 4.78585 2.27656C4.86001 2.07158 4.9687 1.88536 5.10574 1.72848C5.24277 1.57162 5.40545 1.44718 5.58449 1.36228C5.76353 1.27739 5.95543 1.23369 6.14922 1.23369H7.32978C7.36853 1.23372 7.40694 1.22498 7.44274 1.20801C7.47856 1.19104 7.51112 1.16615 7.53852 1.13477C7.56595 1.1034 7.58768 1.06615 7.60253 1.02515C7.61737 0.984154 7.625 0.94021 7.625 0.895829V0.557953H6.14929C5.87798 0.557953 5.60933 0.619126 5.35867 0.737983C5.10802 0.856841 4.88027 1.03105 4.68843 1.25067C4.49659 1.4703 4.34441 1.73101 4.24058 2.01797C4.13676 2.30491 4.08333 2.61246 4.08333 2.92304C4.08333 3.55028 4.30099 4.15187 4.68844 4.5954C5.07587 5.03894 5.60136 5.28813 6.14929 5.28813H7.625Z" fill="url(#paint0_linear_1518_5398)"/>
<path d="M5 3.00001C5 3.22734 5.10536 3.44534 5.29289 3.60607C5.4804 3.76682 5.73474 3.85712 5.99995 3.85712H7.66672C7.84352 3.85712 8.01307 3.91733 8.13808 4.02449C8.2631 4.13166 8.33334 4.27701 8.33334 4.42856V5H9V4.42859C9 4.12549 8.85954 3.83479 8.6095 3.62045C8.35944 3.40613 8.02032 3.28573 7.66672 3.28573H5.99999C5.91159 3.28573 5.8268 3.25562 5.76429 3.20205C5.70178 3.14846 5.66666 3.07579 5.66666 3.00001C5.66666 2.92423 5.70178 2.85156 5.76429 2.79798C5.8268 2.74439 5.91159 2.71429 5.99999 2.71429H7.66672C8.02032 2.71429 8.35944 2.59389 8.6095 2.37956C8.85954 2.16524 9 1.87454 9 1.57143V1H8.33324V1.57143C8.33324 1.72297 8.26302 1.8683 8.13804 1.97545C8.01304 2.08262 7.8435 2.14283 7.66672 2.14286H5.99999C5.86867 2.14285 5.73863 2.16502 5.6173 2.20809C5.49597 2.25117 5.38574 2.31431 5.29289 2.3939C5.20002 2.47349 5.12636 2.56799 5.0761 2.67199C5.02585 2.77598 5 2.88745 5 3.00001Z" fill="url(#paint1_linear_1518_5398)"/>
</g>
<defs>
<filter id="filter0_d_1518_5398" x="0.0833321" y="0.557953" width="12.9167" height="12.7302" filterUnits="userSpaceOnUse" color-interpolation-filters="sRGB">
<feFlood flood-opacity="0" result="BackgroundImageFix"/>
<feColorMatrix in="SourceAlpha" type="matrix" values="0 0 0 0 0 0 0 0 0 0 0 0 0 0 0 0 0 0 127 0" result="hardAlpha"/>
<feOffset dy="4"/>
<feGaussianBlur stdDeviation="2"/>
<feComposite in2="hardAlpha" operator="out"/>
<feColorMatrix type="matrix" values="0 0 0 0 0 0 0 0 0 0 0 0 0 0 0 0 0 0 0.25 0"/>
<feBlend mode="normal" in2="BackgroundImageFix" result="effect1_dropShadow_1518_5398"/>
<feBlend mode="normal" in="SourceGraphic" in2="effect1_dropShadow_1518_5398" result="shape"/>
</filter>
<linearGradient id="paint0_linear_1518_5398" x1="4.61812" y1="2.92304" x2="9.16208" y2="2.92304" gradientUnits="userSpaceOnUse">
<stop stop-color="#817696"/>
<stop offset="1" stop-color="#817698"/>
</linearGradient>
<linearGradient id="paint1_linear_1518_5398" x1="4.26801" y1="3" x2="9.40402" y2="3" gradientUnits="userSpaceOnUse">
<stop stop-color="#8575D2"/>
<stop offset="1" stop-color="#9083D5"/>
</linearGradient>
</defs>
</svg>

